<svg t="1727674881632" class="icon" viewBox="0 0 1116 1024" version="1.1" xmlns="http://www.w3.org/2000/svg" p-id="2493" width="200" height="200"><path d="M252.408303 73.513515c38.080001 1.254631 74.023209 2.891532 107.819822 4.900901l-9.801802 9.801802a443.433522 443.433522 0 0 1 73.513515 83.315317c10.732973-51.949551 41.77528-69.916254 93.117119-53.909911 26.974559 37.031208 61.280866 64.799713 102.918921 83.315317A1359.970621 1359.970621 0 0 1 771.903809 78.414416c30.738451-10.193874 55.242956-2.028973 73.513515 24.504505 57.311136 116.298381 68.740037 237.184005 34.306307 362.666673a339.377592 339.377592 0 0 1 24.504505 107.819822c28.934919 21.897226 40.383424 51.302632 34.306307 88.216218-4.508829 37.119424-6.135928 73.062632-4.900901 107.819822-53.968722 75.238632-127.482237 119.346741-220.540545 132.324327a4533.107978 4533.107978 0 0 1-421.477486 0C210.711438 883.377602 140.471725 845.797494 80.876769 789.04506a222.716545 222.716545 0 0 0-29.405406-68.612614 2498.949813 2498.949813 0 0 1 0-137.225228A676.863436 676.863436 0 0 1 115.183076 539.099109a35.73737 35.73737 0 0 1-9.801802-14.702703 4611.924268 4611.924268 0 0 1 63.711713-156.828831c7.498379-104.92829 35.276685-202.94631 83.315316-294.05406z" fill="#774C36" opacity=".489" p-id="2494"></path><path d="M840.516423 181.333337c22.093262 71.210091 25.357262 144.723606 9.801802 220.540545-1.803532 13.48728-8.331532 21.652181-19.603604 24.504505-13.105009-7.988469-22.906811-19.41737-29.405406-34.306307 9.311712-6.047712 17.466811-4.410811 24.504505 4.900901a936.591585 936.591585 0 0 0 14.702703-215.639644z" fill="#D2994D" p-id="2495"></path><path d="M840.516423 181.333337a936.591585 936.591585 0 0 1-14.702703 215.639644c-7.037694-9.311712-15.192793-10.948613-24.504505-4.900901 6.498595 14.888937 16.300397 26.317838 29.405406 34.306307a838.289313 838.289313 0 0 1 34.306307 166.630633c35.394307 11.281874 40.295208 27.621478 14.702703 49.00901-136.245048 10.556541-263.668473-15.584865-382.270278-78.414416-49.77355-17.956901-102.046561-24.484901-156.828832-19.603604 34.080866-27.111784 37.344866-58.144289 9.801802-93.117119-14.947748-9.890018-31.287352-14.790919-49.00901-14.702702-48.783568-19.231136-91.254777-9.429334-127.423425 29.405405a1563.250192 1563.250192 0 0 0 63.711712-264.648653 405.461341 405.461341 0 0 1 44.108109-93.117119c17.535424-5.096937 33.875028-1.832937 49.00901 9.801802 41.628253 46.587965 87.373263 87.432074 137.225228 122.522525l19.603604-9.801802a113.906741 113.906741 0 0 1-29.405406-49.00901c17.594235-37.668325 38.834739-37.668325 63.711713 0l19.603604 39.207208c25.915964-27.7391 34.090667-24.465298 24.504505 9.801802a125.423858 125.423858 0 0 0 44.108109 19.603604A732.978753 732.978753 0 0 0 771.903809 127.423426c43.549406-9.772397 66.426812 8.194306 68.612614 53.909911z" fill="#EBB369" p-id="2496"></path><path d="M771.903809 171.531535c12.957982-1.666306 24.396685 1.597694 34.306307 9.801802 9.595964 63.594091 4.695063 125.678705-14.702703 186.234238-36.188253-32.953658-72.141263-65.623064-107.819822-98.01802a93710.912058 93710.912058 0 0 0 88.216218-98.01802z" fill="#FADAD0" p-id="2497"></path><path d="M301.417313 142.126129c45.323532 25.719928 81.256938 61.653335 107.819822 107.819822a567.17147 567.17147 0 0 0-142.126129 68.612614c-5.518415-62.241443 5.910487-121.052255 34.306307-176.432436z" fill="#FBDAD0" p-id="2498"></path><path d="M321.020917 328.360367c58.69319 1.607496 71.758992 26.112 39.207208 73.513515-54.400001-3.577658-67.465803-28.082163-39.207208-73.513515z" fill="#FDEEDF" p-id="2499"></path><path d="M497.453353 328.360367c33.1791-6.959279 56.056506 4.469622 68.612614 34.306307-2.548469 12.360072-9.076469 22.161874-19.603604 29.405406-22.642163 4.871496-45.509767 6.498595-68.612614 4.900901-3.273802-26.347244 3.264-49.214848 19.603604-68.612614z" fill="#FDEEE0" p-id="2500"></path><path d="M301.417313 436.180189c-16.663063 0.264649-29.728865 6.802451-39.207208 19.603603-49.597118-16.074955-75.728722 3.528649-78.414415 58.810812-6.537802 0-9.801802 3.264-9.801802 9.801802l-19.603604-19.603604c1.568288-16.202379 8.096288-29.268181 19.603604-39.207208 36.168649-38.834739 78.639857-48.636541 127.423425-29.405405z" fill="#9D704E" p-id="2501"></path><path d="M615.074977 445.98199c-14.428253 15.849514-20.966054 35.453118-19.603604 58.810812 0.098018 15.143784 3.37182 28.209586 9.801802 39.207208 1.274234 8.586379-1.989766 15.12418-9.801802 19.603604a457.254063 457.254063 0 0 0-78.414416-14.702703c-38.579893-34.384721-38.579893-67.054127 0-98.01802 33.580974-15.437838 66.260181-17.074739 98.01802-4.900901z" fill="#F6F3F2" p-id="2502"></path><path d="M262.210105 455.783792c-20.044685 21.534559-23.308685 44.402163-9.801802 68.612614-10.468325 9.154883-23.534127 12.428685-39.207207 9.801802-14.967352 0.715532-24.769154-5.82227-29.405406-19.603604 2.685694-55.282163 28.817298-74.885767 78.414415-58.810812z" fill="#F6F4F3" p-id="2503"></path><path d="M664.083987 426.378387c64.005767 3.509045 95.048074 36.188253 93.117119 98.018019-6.469189 17.878487-17.907892 30.944289-34.306307 39.207208-42.412397 4.744072-81.619605-1.783928-117.621624-19.603604-6.429982-10.997622-9.703784-24.063424-9.801802-39.207208-1.36245-23.357694 5.175351-42.961298 19.603604-58.810812 12.546307-14.389045 28.876109-20.926847 49.00901-19.603603z" fill="#754A34" p-id="2504"></path><path d="M301.417313 436.180189c17.721658-0.088216 34.061262 4.812685 49.00901 14.702702 27.543064 34.972829 24.279064 66.005335-9.801802 93.117119a415.0279 415.0279 0 0 1-147.027029 4.900901c-8.625586-6.939676-15.163388-15.114379-19.603604-24.504505 0-6.537802 3.264-9.801802 9.801802-9.801802 4.636252 13.781334 14.438054 20.319136 29.405406 19.603604 15.045766 12.624721 31.375568 12.624721 49.009009 0-1.215423-5.949694-4.479424-9.213694-9.801802-9.801802-13.506883-24.210451-10.242883-47.078055 9.801802-68.612614 9.478343-12.801153 22.544145-19.338955 39.207208-19.603603z" fill="#784C35" p-id="2505"></path><path d="M252.408303 524.396406c5.322378 0.588108 8.586379 3.852108 9.801802 9.801802-17.633442 12.624721-33.963244 12.624721-49.009009 0 15.673081 2.626883 28.738883-0.646919 39.207207-9.801802z" fill="#B29C94" p-id="2506"></path><path d="M664.083987 426.378387c-20.132901-1.323243-36.462703 5.214559-49.00901 19.603603-31.757838-12.173838-64.437046-10.536937-98.01802 4.900901-38.579893 30.963892-38.579893 63.633299 0 98.01802 26.700109 2.646487 52.831713 7.547388 78.414416 14.702703 7.812036-4.479424 11.076036-11.017225 9.801802-19.603604 36.002019 17.819676 75.209227 24.347676 117.621624 19.603604-73.689947 11.850379-148.840363 11.850379-225.441446 0-47.097659-63.349046-34.031857-110.721155 39.207208-142.126128 44.304145-7.978667 86.785155-6.341766 127.423426 4.900901z" fill="#90654A" p-id="2507"></path><path d="M154.390284 504.792802l19.603604 19.603604c4.440216 9.390126 10.978018 17.564829 19.603604 24.504505 49.518704 7.116108 98.527714 5.489009 147.027029-4.900901a563.956479 563.956479 0 0 1-127.423425 83.315317 238.811104 238.811104 0 0 1-98.01802 14.702703c-7.155315-11.879784-16.957117-21.681586-29.405406-29.405406 10.076252-18.241154 24.778955-31.316757 44.108109-39.207208a576.022497 576.022497 0 0 0 24.504505-68.612614z" fill="#E9B065" p-id="2508"></path><path d="M340.624521 544.00001c54.782271-4.881297 107.055281 1.646703 156.828832 19.603604 118.601804 62.829551 246.02523 88.970957 382.270278 78.414416 24.112433 27.768505 24.112433 57.173911 0 88.216218 13.810739 32.953658 4.008937 57.458163-29.405406 73.513515-107.525768 56.046704-221.87359 80.551209-343.06307 73.513515-112.456074 5.881081-220.275896-12.095424-323.459465-53.909911A250.494852 250.494852 0 0 1 120.083977 769.441456c-4.352-30.483604-17.417802-56.634812-39.207208-78.414416-7.968865-29.787676 3.469838-46.12728 34.306307-49.00901a238.811104 238.811104 0 0 0 98.01802-14.702703 563.956479 563.956479 0 0 0 127.423425-83.315317z" fill="#FBEADA" p-id="2509"></path><path d="M281.813709 622.414426c0.588108-5.322378 3.852108-8.586379 9.801802-9.801802 8.684397 8.086487 11.948397 17.888289 9.801802 29.405406l-19.603604-19.603604z" fill="#B09480" p-id="2510"></path><path d="M409.237135 612.612624h-39.207208c-16.790487-11.125045-23.328289-27.464649-19.603604-49.00901 23.102847-1.597694 45.970451 0.029405 68.612614 4.900901 13.879352 18.770451 10.60555 33.473154-9.801802 44.108109z" fill="#6D4029" p-id="2511"></path><path d="M370.029927 612.612624h39.207208c18.535208 26.190415 44.676613 35.992217 78.414416 29.405406l-29.405406 19.603604c-24.543712-11.174054-50.675316-17.702054-78.414416-19.603604 0-6.537802-3.264-9.801802-9.801802-9.801802v-19.603604z" fill="#936B54" p-id="2512"></path><path d="M281.813709 622.414426l19.603604 19.603604a210.199644 210.199644 0 0 0 68.612614-9.801802c6.537802 0 9.801802 3.264 9.801802 9.801802-27.043172 17.574631-56.448578 22.475532-88.216218 14.702703-8.204108-9.909622-11.468108-21.348325-9.801802-34.306307z" fill="#744530" p-id="2513"></path><path d="M458.246145 661.621634l29.405406-19.603604a434.151215 434.151215 0 0 0 19.603604-29.405406c15.212397 43.402379-1.117405 59.741983-49.00901 49.00901z" fill="#683821" p-id="2514"></path><path d="M173.993888 896.864882c13.065802 6.537802 13.065802 6.537802 0 0z" fill="#6A3E23" opacity=".008" p-id="2515"></path></svg>